PathFileType	4	(X/Y/Z)	Apose_0-50.trc
DataRate	CameraRate	NumFrames	NumMarkers	Units	OrigDataRate	OrigDataStartFrame	OrigNumFrames
30	30	6	22	m	30	10	50
Frame#	Time	Hip			RHip			RKnee			RAnkle			RBigToe			RSmallToe			RHeel			LHip			LKnee			LAnkle			LBigToe			LSmallToe			LHeel			Neck			Head			Nose			RShoulder			RElbow			RWrist			LShoulder			LElbow			LWrist		
		X1	Y1	Z1	X2	Y2	Z2	X3	Y3	Z3	X4	Y4	Z4	X5	Y5	Z5	X6	Y6	Z6	X7	Y7	Z7	X8	Y8	Z8	X9	Y9	Z9	X10	Y10	Z10	X11	Y11	Z11	X12	Y12	Z12	X13	Y13	Z13	X14	Y14	Z14	X15	Y15	Z15	X16	Y16	Z16	X17	Y17	Z17	X18	Y18	Z18	X19	Y19	Z19	X20	Y20	Z20	X21	Y21	Z21	X22	Y22	Z22
11	0.3666666666666666	0.0379274245780501	0.9184103190284478	0.3601228814659081	0.02899633166317891	0.8946405874476722	0.47597863988545774	0.0036677356533355385	0.5027891536786234	0.5012298904662301	-0.01197835582798749	0.1016898098650858	0.5171035875179453	0.20748331694778435	0.03956655659981594	0.5661842672023699	0.15286585403383787	0.030002133537090404	0.614918216976998	-0.05447922645254127	0.031428088937985287	0.5036271801812711	0.029585079766965023	0.8932933972761351	0.2479273299196703	0.017040379644579093	0.5052449957208687	0.2224903723458417	0.0017586649785244649	0.1170984080303101	0.21234908686375123	0.21585868920659393	0.042294166775815496	0.180248402724235	0.16561514120800588	0.04048179455343796	0.12713709343901614	-0.03083909403306162	0.03708510367928211	0.2215090971053307	0.0735323005276163	1.5660283708728135	0.35369631614421887	0.3121067490995475	1.7672790269830223	0.2978233312953335	0.33057207896983504	1.6084058804810804	0.3521989404981975	0.03399434117986911	1.4921192487494277	0.5436199187066263	0.07823414311376983	1.2386776709711627	0.7221514103035342	0.12484302131623004	1.046301197846046	0.898186440165478	0.020431187041382057	1.4759219921899593	0.1510244411954844	0.012268071852058866	1.2270285065223827	0.0059919141010858394	0.060537343928499965	1.0101869609570748	-0.1431653385981296
12	0.4	0.037253486793651425	0.9188837907687094	0.3601101866489552	0.028581286817190077	0.8945245591769408	0.47574250636221627	0.002397088093738693	0.5039379541778916	0.5013580451794413	-0.011777326651847535	0.10298823419459842	0.5162613622381252	0.20698129962197945	0.039500563298962614	0.5660693455307673	0.15270048455593355	0.029982887001949735	0.61431477373423	-0.05573877496989292	0.031193620462306067	0.5047410043865017	0.029916784527207713	0.893046426707178	0.24786523113634176	0.017220042388612456	0.5039991126530334	0.22179413243379795	0.0019397196996410945	0.11643669790616996	0.21188655974801782	0.21527516585145387	0.04190677877810956	0.180452038810822	0.16512009244315926	0.040145318058862546	0.12679900654119508	-0.03144627096246189	0.03620339374047371	0.2209249124465791	0.07213286337546491	1.565958877495575	0.3537449828814305	0.30631716729049946	1.7652747460630864	0.29613422602094375	0.33027758702734444	1.6087763355982099	0.3512338012800121	0.03368794121001285	1.4921203392332725	0.5435651373273619	0.07803077681150712	1.2395016291592102	0.7219179360093738	0.12332163339776181	1.046710708722597	0.8967084457352748	0.020985200537638523	1.4753040154276928	0.1499865890894916	0.013714184656370015	1.2261576452795586	0.005842525488329393	0.06376113912241767	1.0105617748726832	-0.14233602284635125
13	0.4333333333333333	0.03672029482683735	0.9193011659858182	0.360119088376029	0.028577836759666454	0.8938783641938096	0.47515612913683714	0.0012205733527273122	0.5049233286093262	0.5016212810814428	-0.01170451124734294	0.10478368435426069	0.5153220027000479	0.20647978785709195	0.03940272515085966	0.565930683143037	0.15257584342580702	0.03017416229908458	0.6137715107494857	-0.05667287219238627	0.031032244897639477	0.5053996861689408	0.03050518384302355	0.8923417077056169	0.2476052321117757	0.017255637735993264	0.5014731441663012	0.2208996140144325	0.0024407201479679386	0.11488980384960479	0.2113009365459871	0.21476604789642148	0.04107687033754822	0.18107334941921155	0.1645675652530393	0.039555677532238244	0.12693297921276983	-0.031961872912880475	0.035965813445373744	0.22101962979244894	0.07025578689828173	1.5657122468601812	0.35390333737614954	0.30064651709145257	1.7632094063185828	0.294329064808925	0.33071283752204894	1.6091162076353662	0.34991051554828834	0.033263203328167686	1.4920201205656949	0.5436946938867202	0.07821721316174529	1.240233338375789	0.7216815242766175	0.12212044864896501	1.046895212902471	0.8951846747132993	0.02129106952384013	1.4746659912277114	0.14875927588054336	0.015188990930259588	1.2254676229365735	0.0056371022445737785	0.06674313426353518	1.011045181204708	-0.14148713688383124
14	0.4666666666666667	0.036474646823186796	0.9195901326783278	0.36011220750883743	0.028958316566206586	0.8930450127596424	0.47444177287444367	0.0004625269298144841	0.5055029411718751	0.5019442563830672	-0.011755795579500527	0.10669977442922329	0.5143654921618017	0.2061547944657189	0.03925971404667631	0.5657578845031023	0.1524914201462918	0.030453065349519755	0.6132894538519491	-0.05731708832775466	0.03090361791336104	0.5055511052846665	0.03114138317210895	0.8915734233171542	0.24721621523342405	0.01704465166396375	0.4986421685913858	0.22013535053808278	0.003160220507746586	0.11295180468544955	0.2106777737025072	0.214363616967099	0.04013702492918409	0.1819963946457307	0.1640753113451109	0.03903306277195916	0.12747508953558465	-0.03230343835763852	0.036225828295438384	0.22154813867328194	0.06833430046030006	1.565329625636363	0.35403952966008767	0.29729942496177936	1.7615849202575748	0.29198645553861147	0.3313974354924522	1.6095352627950825	0.3484176715269527	0.032701011175167174	1.4919444442113523	0.5437807648049521	0.07849967229077885	1.2409703076558984	0.7212905439851975	0.12115403382455259	1.0467737114401217	0.8938411368819065	0.02132889221984095	1.4741513800605202	0.14748938221997712	0.016621277146466377	1.2249726689198963	0.005465388369967879	0.06951555400117015	1.0117561954054692	-0.14075377565893615
15	0.5	0.03662345319985814	0.9197748478802712	0.36009551088682906	0.029621536502548798	0.8924449737870307	0.4738553129673979	0.00025476508602149825	0.5057087515060212	0.5022357615286025	-0.011820655187644493	0.10817155449899611	0.5136350379895401	0.20606420950360418	0.03916838472435116	0.5655630609533646	0.15241198684674329	0.03073331615880887	0.6128942512146298	-0.05769092369578049	0.030793464391291613	0.5053477936030648	0.03173332454136652	0.8911015129195352	0.24683996512885997	0.016647609351319745	0.49678343236851086	0.21979261184691543	0.004043682963821435	0.11108144102853656	0.21001394916672128	0.21401202115668963	0.039419346744240025	0.18308876646703323	0.1637503592959382	0.03883322958889675	0.12828217720781432	-0.03241813553582899	0.03677747060399962	0.22215219218127122	0.0667450680736251	1.5648548671009108	0.3540108869981101	0.2956505171773065	1.7607684495618101	0.28968627510163064	0.33192336042642134	1.6101826867033044	0.34699958825729665	0.03195875615191342	1.4919654777815472	0.5436386445419229	0.07854319414251072	1.2416416571406304	0.720746063158847	0.12043402893870207	1.0463932337953339	0.8928505586965004	0.021137640919976976	1.4738415177739457	0.14636989163450914	0.018000972155374113	1.224694426992153	0.005402541278347301	0.07221373810851961	1.0127531154841514	-0.1402573256358568
16	0.5333333333333333	0.037166350964244435	0.9199468307159853	0.36008970934714996	0.03044959310804559	0.8923449757422657	0.4735394251312799	0.000535715550832783	0.5056988016337584	0.502446499531173	-0.011823175774270415	0.10871654379229613	0.5133531762172865	0.20611587130802736	0.03923205618785252	0.5653472173447565	0.15225415251259222	0.031013185250216464	0.612664966220475	-0.05777529277829016	0.03068648270434763	0.5050322036214713	0.03228204421265594	0.891059590511925	0.24659317117222104	0.016071319101918884	0.49670033976245453	0.21999023354818287	0.0049564817499661105	0.10971416899370798	0.20934076914412128	0.2136682163811057	0.03912523344845652	0.1842550709820137	0.16363026201826847	0.03902729288144925	0.12920216826738612	-0.032286871654219285	0.037480860677417224	0.22250428215895007	0.06561327488634876	1.5642700232535798	0.3537167964251834	0.2924868237249655	1.76106342708377	0.2894708169393143	0.33214924970599147	1.6110918021458895	0.3458668155014116	0.031022682629140805	1.492078495168032	0.5432068724854303	0.07821065454062585	1.2422093371891139	0.7201178626461324	0.12003854056262879	1.0458824078932476	0.892289915271817	0.020775670181508093	1.4737618871334974	0.14552074488769134	0.019358998045667614	1.2247070954341637	0.005455970193614779	0.07484651736501466	1.0139048547775344	-0.1400898086968206
